<svg data-v-0dd9719b="" version="1.0" xmlns="http://www.w3.org/2000/svg" xmlns:xlink="http://www.w3.org/1999/xlink" width="100%" height="100%" viewBox="0 0 340.000000 250.000000" preserveAspectRatio="xMidYMid meet" color-interpolation-filters="sRGB" style="margin: auto;"> <rect data-v-0dd9719b="" x="0" y="0" width="100%" height="100%" fill="#fff" fill-opacity="1" class="background"></rect> <rect data-v-0dd9719b="" x="0" y="0" width="100%" height="100%" fill="url(#watermark)" fill-opacity="1" class="watermarklayer"></rect> <g data-v-0dd9719b="" fill="#333" class="icon-text-wrapper icon-svg-group iconsvg" transform="translate(46.785003662109375,94.58637428283691)"><g class="iconsvg-imagesvg" transform="translate(0,0)"><g><rect fill="#333" fill-opacity="0" stroke-width="2" x="0" y="0" width="60" height="60.8272506082725" class="image-rect"></rect> <svg x="0" y="0" width="60" height="60.8272506082725" filtersec="colorsb1321102572" class="image-svg-svg primary" style="overflow: visible;"><svg xmlns="http://www.w3.org/2000/svg" viewBox="-0.01667151227593422 -0.0010506667895242572 98.62667083740234 99.98663330078125"><path d="M4.5 70.71a49.73 49.73 0 0 0 13.39 17.61L97.16 46.7z" fill="#2a3d8f"></path><path d="M19.15 89.34a50 50 0 0 0 79.46-27.68z" fill="#272660"></path><path d="M76.66 7.71A50 50 0 0 0 0 51.29l82.29-39.45a51 51 0 0 0-5.63-4.13z" fill="#29aae1"></path><path d="M88 25L.06 52.31A50.25 50.25 0 0 0 4.15 70z" fill="#1f76bb"></path></svg></svg> <!----></g></g> <g transform="translate(67,13.238626480102539)"><g data-gra="path-name" fill-rule="" class="tp-name iconsvg-namesvg"><g transform="scale(1)"><g><path d="M0.33-33.4L0.33-27.91 10.4-27.91 10.4 0 16.84 0 16.84-27.91 26.86-27.91 26.86-33.4ZM43.41-33.4L35.26-33.4 23.28 0 30.25 0 39.12-26.48 39.6-26.48 49.09 0 56.53 0ZM71.66-14.74L61.21-33.4 53.81-33.4 65.22-13.36 65.22 0 71.66 0ZM73.8-17.99L83.34-33.4 76.05-33.4 70.37-23.62ZM93.32-9.97L93.32-33.4 86.83-33.4 86.83-9.97ZM86.83 0L111.11 0 111.11-6.3 86.83-6.3ZM129.81-33.87L129.81-27.77C136.11-27.77 140.88-24.14 140.88-16.7 140.88-9.26 136.11-5.58 129.81-5.58 123.71-5.58 118.98-9.26 118.98-16.7 118.98-16.7 112.49-16.7 112.49-16.7 112.49-5.68 120.17 0.48 129.81 0.48 139.69 0.48 147.32-5.2 147.32-16.7 147.32-27.67 139.69-33.87 129.81-33.87ZM152.33 0L158.77 0 158.77-11.78 166.26-11.78 172.51 0 179.76 0 171.99-12.88C176.04-14.88 177.85-19.27 177.85-22.85 177.85-29.58 173.65-33.4 166.12-33.4L152.33-33.4 152.33-27.77 165.4-27.77C169.7-27.77 171.79-26 171.79-22.71 171.79-19.18 169.31-17.13 165.45-17.13L152.33-17.13Z" transform="translate(-0.33000001311302185, 33.869998931884766)"></path></g> <!----> <!----> <!----> <!----> <!----> <!----> <!----></g></g> <!----></g></g><defs v-gra="od"></defs></svg>